<svg style="height: 512px; width: 512px;" xmlns="http://www.w3.org/2000/svg" viewBox="0 0 512 512"><defs><linearGradient x1="0" x2="1" y1="0" y2="1" id="quoting-card-play-gradient-4"><stop offset="0%" stop-color="#5c258d" stop-opacity="1"></stop><stop offset="100%" stop-color="#4389a2" stop-opacity="1"></stop></linearGradient></defs><g class="" style="" transform="translate(0,0)"><g><path d="M272.824 24.318C257.895 24.63 247.164 27.564 240.057 32.764L142.898 84.91L88.793 158.424C77.42 175.98 85.517 210 121.111 188.197L160.011 136.846C209.487 94.135 310.496 113.814 262.598 199.437C239.068 249.019 250.141 273.227 280.358 283.387L294.17 237.006C318.119 183.181 362.672 173.496 360.854 130.102L468.156 137.826L467.291 25.781L272.824 24.318Z" class="" fill="#000000" fill-opacity="1" stroke="#c9c9c9" stroke-opacity="1" stroke-width="2"></path><path d="M218.734 127.656C201.324 127.356 184.248 134.554 171.814 145.031L132.77 196.361C143.483 204.867 154.183 200.321 164.895 189.998C177.521 196.392 187.26 186.476 195.26 166.701C198.577 153.212 203.47 143.664 218.734 127.656Z" class="selected" fill="#000000" fill-opacity="1" stroke="#c9c9c9" stroke-opacity="1" stroke-width="2"></path><path d="M186.117 215.98C184.308 216.036 182.528 216.456 180.885 217.215L51.72 276.725C44.936 279.855 41.957 287.927 45.087 294.717L130.357 479.797C133.488 486.58 141.561 489.576 148.357 486.432L277.507 426.928C284.303 423.791 287.283 415.73 284.153 408.928L198.871 223.86C196.527 218.763 191.397 215.817 186.117 215.98Z" class="" fill="url(#quoting-card-play-gradient-4)" stroke="#000000" stroke-opacity="1" stroke-width="4"></path></g></g></svg>